# xmcd
# Track frame offsets:
# 150
# 26686
# 50470
# 70465
# 91707
# 106706
# 126735
# 154964
# 176092
# 199431
# 221237
# 240013
# 264991
#
# Disc length: 3750 seconds
# Revision: 1
# Processed by: cddbd v1.5.2PL0 Copyright (c) Steve Scherf et al.
# Submitted via: VisiTrax 2.10.0.248 - For more info visit www.synapsa.com
#
DISCID=ba0ea40d
DTITLE=Keith Urban - Love, Pain and the Whole Crazy Thing
DYEAR=2006
DGENRE=Country
TTITLE0=Keith Urban - Once in a Lifetime
TTITLE1=Keith Urban - Shine
TTITLE2=Keith Urban - I Told you So
TTITLE3=Keith Urban - I Can't Stop Loving You
TTITLE4=Keith Urban - Won't Let you Down
TTITLE5=Keith Urban - Faster Car
TTITLE6=Keith Urban - Stupid Boy
TTITLE7=Keith Urban - Used to the Pain
TTITLE8=Keith Urban - Ronnie Dunn - Raise the Barn
TTITLE9=Keith Urban - God Made Woman
TTITLE10=Keith Urban - Tu Compañía
TTITLE11=Keith Urban - Everybody
TTITLE12=Keith Urban - Got it Right This Time
EXTD=
EXTT0=
EXTT1=
EXTT2=
EXTT3=
EXTT4=
EXTT5=
EXTT6=
EXTT7=
EXTT8=
EXTT9=
EXTT10=
EXTT11=
EXTT12=
PLAYORDER=
